#!OML:ASF F:\VICON\USERDATA\INSTALL\rory7\rory7.ASF
:FULLY-SPECIFIED
:DEGREES
266
root -0.498446 23.941 3.20801 -174.783 13.4329 174.282
lowerback 30.625 1.48552 -9.46026
upperback 3.64558 -0.420032 -3.40403
thorax -11.7443 0.672475 1.47299
lowerneck -14.5404 -0.289628 -5.00316
upperneck 17.7341 0.279892 3.75623
head 7.86353 0.269222 2.11838
rclavicle -1.90833e-014 4.29375e-014
rhumerus 4.68545 13.56 -74.7781
rradius 75.7877
rwrist 4.07032
rhand -42.2517 6.45048
rfingers 7.12502
rthumb -15.1377 -22.9759
lclavicle -1.90833e-014 4.29375e-014
lhumerus 7.93508 1.55212 79.8646
lradius 107.255
lwrist 21.2735
lhand -17.9253 37.4868
lfingers 7.12502
lthumb 8.3424 67.3021
rfemur -69.0813 -4.4024 12.8753
rtibia 108.048
rfoot -22.5281 -9.03254
rtoes -15.4452
lfemur -31.5665 22.6514 -38.9088
ltibia 36.1677
lfoot -3.63118 7.23603
ltoes -7.54926
267
root -0.524263 23.9768 3.21349 -174.754 13.1677 174.282
lowerback 30.8041 1.30557 -9.26853
upperback 3.69287 -0.590687 -3.33619
thorax -11.7592 0.590697 1.5062
lowerneck -14.4375 -0.328207 -5.06627
upperneck 17.5631 0.236219 3.72717
head 7.79081 0.238869 2.11091
rclavicle -1.47101e-014 1.27222e-014
rhumerus 4.83342 13.6484 -74.5444
rradius 75.8278
rwrist 3.82124
rhand -41.6064 7.00893
rfingers 7.12502
rthumb -14.516 -22.4632
lclavicle -1.47101e-014 1.27222e-014
lhumerus 7.51894 1.67486 80.1604
lradius 107.41
lwrist 20.6398
lhand -18.7176 36.4903
lfingers 7.12502
lthumb 7.5777 66.3346
rfemur -70.1678 -5.24584 13.3023
rtibia 108.843
rfoot -23.4381 -9.44837
rtoes -15.5801
lfemur -31.2288 22.188 -38.8301
ltibia 35.654
lfoot -3.19465 7.26566
ltoes -7.46803
268
root -0.542125 24.0095 3.21993 -174.704 13.0772 174.238
lowerback 30.853 1.17569 -9.23681
upperback 3.78681 -0.727515 -3.34582
thorax -11.6627 0.529423 1.52958
lowerneck -14.5788 -0.359754 -5.01962
upperneck 17.482 0.185073 3.69482
head 7.79158 0.211741 2.08616
rclavicle 6.75868e-015 2.70347e-014
rhumerus 5.14944 13.7027 -74.5134
rradius 75.7977
rwrist 3.49579
rhand -40.8764 7.6708
rfingers 7.12502
rthumb -13.8125 -21.8506
lclavicle 6.75868e-015 2.70347e-014
lhumerus 7.52519 1.84208 80.2165
lradius 107.378
lwrist 20.0204
lhand -19.4762 35.9058
lfingers 7.12502
lthumb 6.84544 65.7751
rfemur -71.3787 -5.84188 13.705
rtibia 109.605
rfoot -24.2528 -10.037
rtoes -15.381
lfemur -31.0089 21.9334 -38.8244
ltibia 35.1396
lfoot -2.76318 7.23125
ltoes -7.10622
269
root -0.556658 24.0389 3.22549 -174.66 13.19 174.144
lowerback 30.7873 1.20174 -9.43903
upperback 3.87126 -0.727124 -3.28764
thorax -11.5289 0.535893 1.69913
lowerneck -14.7035 -0.385579 -5.02785
upperneck 17.5209 0.172638 3.60057
head 7.82763 0.195247 2.05596
rclavicle 5.56597e-015 1.59028e-014
rhumerus 5.43184 13.8378 -74.3088
rradius 75.76
rwrist 3.21383
rhand -40.4376 8.25216
rfingers 7.12502
rthumb -13.3896 -21.2976
lclavicle 5.56597e-015 1.59028e-014
lhumerus 7.60888 1.99811 80.3468
lradius 107.304
lwrist 19.4827
lhand -19.8388 35.664
lfingers 7.12502
lthumb 6.49543 65.5444
rfemur -72.6558 -6.15732 14.0178
rtibia 110.267
rfoot -24.7824 -10.3689
rtoes -15.0753
lfemur -30.8856 21.9047 -38.9197
ltibia 34.7002
lfoot -2.36918 7.16372
ltoes -7.2608
270
root -0.572269 24.0636 3.23308 -174.624 13.1997 174.242
lowerback 30.8758 1.17948 -9.41343
upperback 3.89168 -0.745069 -3.16781
thorax -11.5412 0.526619 1.82006
lowerneck -14.6371 -0.386383 -5.08117
upperneck 17.508 0.19767 3.52073
head 7.81081 0.195707 2.04038
rclavicle -4.13472e-014 -7.71285e-014
rhumerus 5.57324 13.9769 -74.1145
rradius 75.6873
rwrist 2.9965
rhand -40.3104 8.8257
rfingers 7.12502
rthumb -13.267 -20.7321
lclavicle -4.13472e-014 -7.71285e-014
lhumerus 7.5405 2.15543 80.5082
lradius 107.227
lwrist 18.9949
lhand -19.9831 35.3665
lfingers 7.12502
lthumb 6.35611 65.2511
rfemur -73.7704 -6.43995 14.547
rtibia 110.783
rfoot -25.1492 -10.3007
rtoes -14.9041
lfemur -30.7139 21.7294 -38.7897
ltibia 34.2925
lfoot -1.96887 7.16492
ltoes -8.07916
271
root -0.583864 24.0907 3.23868 -174.635 13.1886 174.517
lowerback 31.0603 1.13251 -9.17024
upperback 3.89873 -0.738248 -3.07436
thorax -11.6211 0.52246 1.78775
lowerneck -14.3307 -0.458503 -5.22048
upperneck 17.3166 0.0893562 3.65552
head 7.69792 0.147167 2.09218
rclavicle -2.22639e-014 -1.11319e-014
rhumerus 5.65676 14.0569 -74.0223
rradius 75.6303
rwrist 2.64311
rhand -40.1807 9.322
rfingers 7.12502
rthumb -13.142 -20.2439
lclavicle -2.22639e-014 -1.11319e-014
lhumerus 7.38199 2.22535 80.562
lradius 107.191
lwrist 18.6381
lhand -19.9281 34.9691
lfingers 7.12502
lthumb 6.40923 64.8521
rfemur -74.645 -6.60641 15.2403
rtibia 111.15
rfoot -25.642 -9.67241
rtoes -14.0921
lfemur -30.4582 21.5127 -38.4096
ltibia 33.8983
lfoot -1.40614 7.2245
ltoes -9.05227
272
root -0.593034 24.1251 3.23641 -174.843 13.2869 174.582
lowerback 31.3272 1.17056 -9.19101
upperback 3.95292 -0.698966 -3.04822
thorax -11.673 0.551041 1.80619
lowerneck -14.0616 -0.574001 -5.32674
upperneck 17.1362 -0.0831726 3.77871
head 7.59908 0.0685232 2.12844
rclavicle -8.74653e-015 -3.18055e-014
rhumerus 5.70685 14.1864 -73.8735
rradius 75.6862
rwrist 2.06457
rhand -39.8263 9.41345
rfingers 7.12502
rthumb -12.8003 -20.1741
lclavicle -8.74653e-015 -3.18055e-014
lhumerus 7.29516 2.29378 80.5465
lradius 107.113
lwrist 18.3835
lhand -19.9386 34.4928
lfingers 7.12502
lthumb 6.39905 64.3761
rfemur -75.2515 -6.66909 15.6468
rtibia 111.376
rfoot -26.1003 -9.00656
rtoes -14.2183
lfemur -29.9596 21.4488 -38.156
ltibia 33.4753
lfoot -1.07127 7.28376
ltoes -9.09523
273
root -0.60397 24.1534 3.23753 -175.041 13.2823 174.471
lowerback 31.6329 1.18507 -9.30705
upperback 3.99604 -0.726493 -3.05602
thorax -11.7431 0.556357 1.86188
lowerneck -14.1409 -0.651064 -5.42526
upperneck 17.2359 -0.197281 3.96295
head 7.6515 0.0262197 2.19569
rclavicle -1.07344e-014 -1.74931e-014
rhumerus 5.7527 14.2826 -73.7123
rradius 75.823
rwrist 1.5703
rhand -39.4762 8.87722
rfingers 7.12502
rthumb -12.4629 -20.7312
lclavicle -1.07344e-014 -1.74931e-014
lhumerus 7.22809 2.3273 80.5873
lradius 107.032
lwrist 18.1359
lhand -20.1899 34.126
lfingers 7.12502
lthumb 6.15648 64.0166
rfemur -75.925 -6.82159 15.8231
rtibia 111.531
rfoot -26.3138 -8.40148
rtoes -14.8849
lfemur -29.4947 21.2899 -38.1097
ltibia 33.0747
lfoot -0.828823 7.35168
ltoes -8.52882
274
root -0.612881 24.181 3.23968 -175.156 13.2982 174.459
lowerback 31.7722 1.19767 -9.40643
upperback 4.08868 -0.723539 -3.00928
thorax -11.6898 0.567653 1.95965
lowerneck -14.3918 -0.712148 -5.63373
upperneck 17.3855 -0.282371 4.26556
head 7.7498 0.00214175 2.32515
rclavicle 5.12864e-014 5.48646e-014
rhumerus 5.93397 14.3266 -73.5425
rradius 75.9307
rwrist 0.977804
rhand -39.1324 8.93
rfingers 7.12502
rthumb -12.1313 -20.6983
lclavicle 5.12864e-014 5.48646e-014
lhumerus 7.22817 2.4088 80.6709
lradius 106.924
lwrist 17.7847
lhand -20.1904 33.6548
lfingers 7.12502
lthumb 6.15599 63.5453
rfemur -76.6067 -6.87256 16.1123
rtibia 111.563
rfoot -26.3298 -7.72359
rtoes -15.5823
lfemur -29.1129 21.0299 -37.9728
ltibia 32.6692
lfoot -0.498695 7.56665
ltoes -8.46397
275
root -0.61894 24.205 3.24089 -175.186 13.2983 174.511
lowerback 31.7946 1.20694 -9.43623
upperback 4.20377 -0.687184 -2.95408
thorax -11.5687 0.586551 2.01999
lowerneck -14.522 -0.758519 -5.79296
upperneck 17.3553 -0.358366 4.52026
head 7.76714 -0.0207423 2.42823
rclavicle -3.97569e-016 9.54166e-015
rhumerus 6.139 14.2228 -73.3925
rradius 76.0169
rwrist 0.359322
rhand -38.4394 9.31669
rfingers 7.12502
rthumb -11.463 -20.3499
lclavicle -3.97569e-016 9.54166e-015
lhumerus 7.33846 2.447 80.6845
lradius 106.831
lwrist 17.5873
lhand -20.1439 33.4781
lfingers 7.12502
lthumb 6.20092 63.3674
rfemur -77.2899 -6.86377 16.4521
rtibia 111.495
rfoot -26.2659 -6.84673
rtoes -15.3206
lfemur -28.8493 20.7405 -37.7791
ltibia 32.3398
lfoot -0.119312 7.62643
ltoes -7.85827
